<mxfile host="app.diagrams.net" agent="Mozilla/5.0 (Windows NT 10.0; Win64; x64) AppleWebKit/537.36 (KHTML, like Gecko) Chrome/133.0.0.0 Safari/537.36 Edg/133.0.0.0" version="26.0.16">
  <diagram name="Сторінка-1" id="EbbtrPK-96Rvlipn7ob6">
    <mxGraphModel dx="1226" dy="665" grid="1" gridSize="10" guides="1" tooltips="1" connect="1" arrows="1" fold="1" page="1" pageScale="1" pageWidth="827" pageHeight="1169" math="0" shadow="0">
      <root>
        <mxCell id="0" />
        <mxCell id="1" parent="0" />
        <mxCell id="VFk0IlF5g3LK6-xfikvq-1" value="" style="rounded=0;whiteSpace=wrap;html=1;" vertex="1" parent="1">
          <mxGeometry x="350" y="430" width="120" height="60" as="geometry" />
        </mxCell>
        <mxCell id="VFk0IlF5g3LK6-xfikvq-19" value="" style="edgeStyle=orthogonalEdgeStyle;rounded=0;orthogonalLoop=1;jettySize=auto;html=1;" edge="1" parent="1" source="VFk0IlF5g3LK6-xfikvq-2" target="VFk0IlF5g3LK6-xfikvq-18">
          <mxGeometry relative="1" as="geometry" />
        </mxCell>
        <mxCell id="VFk0IlF5g3LK6-xfikvq-25" value="" style="edgeStyle=orthogonalEdgeStyle;rounded=0;orthogonalLoop=1;jettySize=auto;html=1;" edge="1" parent="1" source="VFk0IlF5g3LK6-xfikvq-2" target="VFk0IlF5g3LK6-xfikvq-24">
          <mxGeometry relative="1" as="geometry" />
        </mxCell>
        <mxCell id="VFk0IlF5g3LK6-xfikvq-2" value="Lyziar" style="text;html=1;align=center;verticalAlign=middle;whiteSpace=wrap;rounded=0;" vertex="1" parent="1">
          <mxGeometry x="379" y="445" width="60" height="30" as="geometry" />
        </mxCell>
        <mxCell id="VFk0IlF5g3LK6-xfikvq-3" value="" style="rounded=0;whiteSpace=wrap;html=1;" vertex="1" parent="1">
          <mxGeometry x="350" y="240" width="120" height="60" as="geometry" />
        </mxCell>
        <mxCell id="VFk0IlF5g3LK6-xfikvq-6" value="listok" style="text;html=1;align=center;verticalAlign=middle;whiteSpace=wrap;rounded=0;" vertex="1" parent="1">
          <mxGeometry x="380" y="255" width="60" height="30" as="geometry" />
        </mxCell>
        <mxCell id="VFk0IlF5g3LK6-xfikvq-18" value="" style="rhombus;whiteSpace=wrap;html=1;" vertex="1" parent="1">
          <mxGeometry x="370" y="330" width="80" height="80" as="geometry" />
        </mxCell>
        <mxCell id="VFk0IlF5g3LK6-xfikvq-60" value="" style="edgeStyle=orthogonalEdgeStyle;rounded=0;orthogonalLoop=1;jettySize=auto;html=1;" edge="1" parent="1" source="VFk0IlF5g3LK6-xfikvq-20" target="VFk0IlF5g3LK6-xfikvq-59">
          <mxGeometry relative="1" as="geometry" />
        </mxCell>
        <mxCell id="VFk0IlF5g3LK6-xfikvq-20" value="kupit" style="text;html=1;align=center;verticalAlign=middle;whiteSpace=wrap;rounded=0;" vertex="1" parent="1">
          <mxGeometry x="380" y="355" width="60" height="30" as="geometry" />
        </mxCell>
        <mxCell id="VFk0IlF5g3LK6-xfikvq-21" value="" style="endArrow=classic;html=1;rounded=0;exitX=0.5;exitY=0;exitDx=0;exitDy=0;entryX=0.5;entryY=1;entryDx=0;entryDy=0;" edge="1" parent="1" source="VFk0IlF5g3LK6-xfikvq-18">
          <mxGeometry width="50" height="50" relative="1" as="geometry">
            <mxPoint x="380" y="310" as="sourcePoint" />
            <mxPoint x="410" y="300" as="targetPoint" />
          </mxGeometry>
        </mxCell>
        <mxCell id="VFk0IlF5g3LK6-xfikvq-22" value="" style="endArrow=none;html=1;rounded=0;exitX=0.575;exitY=0.167;exitDx=0;exitDy=0;exitPerimeter=0;" edge="1" parent="1" source="VFk0IlF5g3LK6-xfikvq-1">
          <mxGeometry width="50" height="50" relative="1" as="geometry">
            <mxPoint x="380" y="310" as="sourcePoint" />
            <mxPoint x="420" y="400" as="targetPoint" />
          </mxGeometry>
        </mxCell>
        <mxCell id="VFk0IlF5g3LK6-xfikvq-24" value="" style="rhombus;whiteSpace=wrap;html=1;" vertex="1" parent="1">
          <mxGeometry x="369" y="530" width="80" height="80" as="geometry" />
        </mxCell>
        <mxCell id="VFk0IlF5g3LK6-xfikvq-28" value="" style="edgeStyle=orthogonalEdgeStyle;rounded=0;orthogonalLoop=1;jettySize=auto;html=1;" edge="1" parent="1" source="VFk0IlF5g3LK6-xfikvq-26">
          <mxGeometry relative="1" as="geometry">
            <mxPoint x="409" y="650" as="targetPoint" />
          </mxGeometry>
        </mxCell>
        <mxCell id="VFk0IlF5g3LK6-xfikvq-30" value="" style="edgeStyle=orthogonalEdgeStyle;rounded=0;orthogonalLoop=1;jettySize=auto;html=1;" edge="1" parent="1" source="VFk0IlF5g3LK6-xfikvq-26" target="VFk0IlF5g3LK6-xfikvq-29">
          <mxGeometry relative="1" as="geometry" />
        </mxCell>
        <mxCell id="VFk0IlF5g3LK6-xfikvq-26" value="rezervacia" style="text;html=1;align=center;verticalAlign=middle;whiteSpace=wrap;rounded=0;" vertex="1" parent="1">
          <mxGeometry x="379" y="555" width="60" height="30" as="geometry" />
        </mxCell>
        <mxCell id="VFk0IlF5g3LK6-xfikvq-29" value="" style="whiteSpace=wrap;html=1;" vertex="1" parent="1">
          <mxGeometry x="349" y="650" width="120" height="60" as="geometry" />
        </mxCell>
        <mxCell id="VFk0IlF5g3LK6-xfikvq-31" value="zariadenie" style="text;html=1;align=center;verticalAlign=middle;whiteSpace=wrap;rounded=0;" vertex="1" parent="1">
          <mxGeometry x="379" y="665" width="60" height="30" as="geometry" />
        </mxCell>
        <mxCell id="VFk0IlF5g3LK6-xfikvq-59" value="" style="ellipse;whiteSpace=wrap;html=1;" vertex="1" parent="1">
          <mxGeometry x="480" y="340" width="120" height="60" as="geometry" />
        </mxCell>
        <mxCell id="VFk0IlF5g3LK6-xfikvq-61" value="online" style="text;html=1;align=center;verticalAlign=middle;whiteSpace=wrap;rounded=0;" vertex="1" parent="1">
          <mxGeometry x="510" y="355" width="60" height="30" as="geometry" />
        </mxCell>
        <mxCell id="VFk0IlF5g3LK6-xfikvq-62" value="" style="ellipse;whiteSpace=wrap;html=1;" vertex="1" parent="1">
          <mxGeometry x="495" y="410" width="90" height="50" as="geometry" />
        </mxCell>
        <mxCell id="VFk0IlF5g3LK6-xfikvq-64" value="" style="edgeStyle=orthogonalEdgeStyle;rounded=0;orthogonalLoop=1;jettySize=auto;html=1;" edge="1" parent="1" source="VFk0IlF5g3LK6-xfikvq-63" target="VFk0IlF5g3LK6-xfikvq-18">
          <mxGeometry relative="1" as="geometry">
            <Array as="points">
              <mxPoint x="540" y="410" />
            </Array>
          </mxGeometry>
        </mxCell>
        <mxCell id="VFk0IlF5g3LK6-xfikvq-63" value="offline" style="text;html=1;align=center;verticalAlign=middle;whiteSpace=wrap;rounded=0;" vertex="1" parent="1">
          <mxGeometry x="510" y="420" width="60" height="30" as="geometry" />
        </mxCell>
      </root>
    </mxGraphModel>
  </diagram>
</mxfile>
